<svg width="64" height="64" viewBox="0 0 64 64" fill="none" xmlns="http://www.w3.org/2000/svg">
<g clip-path="url(#clip0_325_181)">
<path d="M0 5C0 2.23858 2.23858 0 5 0H59C61.7614 0 64 2.23858 64 5V59C64 61.7614 61.7614 64 59 64H5C2.23858 64 0 61.7614 0 59V5Z" fill="white"/>
<path fill-rule="evenodd" clip-rule="evenodd" d="M55.442 11.872C57.984 11.872 60.052 9.80398 60.052 7.26198C60.052 4.71998 57.984 2.65198 55.442 2.65198C52.9 2.65198 50.8315 4.71998 50.8315 7.26198C50.8315 9.80398 52.9 11.872 55.442 11.872ZM55.442 4.65198C56.881 4.65198 58.052 5.82298 58.052 7.26198C58.052 8.70098 56.881 9.87198 55.442 9.87198C54.003 9.87198 52.8315 8.70098 52.8315 7.26198C52.8315 5.82298 54.0025 4.65198 55.442 4.65198Z" fill="#4758DC"/>
<path fill-rule="evenodd" clip-rule="evenodd" d="M12.671 53.5219C10.5135 53.5219 8.758 55.2774 8.758 57.4349C8.758 59.5924 10.5135 61.3479 12.671 61.3479C14.8285 61.3479 16.5845 59.5924 16.5845 57.4349C16.5845 55.2774 14.8285 53.5219 12.671 53.5219ZM12.671 59.3479C11.6165 59.3479 10.758 58.4899 10.758 57.4349C10.758 56.3799 11.6165 55.5219 12.671 55.5219C13.7255 55.5219 14.5845 56.3799 14.5845 57.4349C14.5845 58.4899 13.726 59.3479 12.671 59.3479Z" fill="#4758DC"/>
<path fill-rule="evenodd" clip-rule="evenodd" d="M7.54249 12.057C9.52399 12.057 11.137 13.6695 11.137 15.6515C11.137 17.6335 9.52399 19.246 7.54249 19.246C5.56099 19.246 3.94849 17.6335 3.94849 15.6515C3.94849 13.6695 5.56099 12.057 7.54249 12.057ZM7.54199 14.057C6.66349 14.057 5.94799 14.7725 5.94799 15.6515C5.94799 16.5305 6.66299 17.246 7.54199 17.246C8.42099 17.246 9.13649 16.5305 9.13649 15.6515C9.13649 14.7725 8.42049 14.057 7.54199 14.057Z" fill="#4758DC"/>
<path fill-rule="evenodd" clip-rule="evenodd" d="M56.318 52.3524C54.336 52.3524 52.724 53.9649 52.724 55.9469C52.724 57.9289 54.3365 59.5414 56.318 59.5414C58.2995 59.5414 59.9125 57.9289 59.9125 55.9469C59.9125 53.9649 58.2995 52.3524 56.318 52.3524ZM56.318 57.5414C55.439 57.5414 54.724 56.8259 54.724 55.9469C54.724 55.0679 55.4395 54.3524 56.318 54.3524C57.1965 54.3524 57.9125 55.0679 57.9125 55.9469C57.9125 56.8259 57.197 57.5414 56.318 57.5414Z" fill="#4758DC"/>
<path fill-rule="evenodd" clip-rule="evenodd" d="M25.163 17.246C22.136 17.246 19.6735 19.7085 19.6735 22.7355C19.6735 25.7625 22.136 28.225 25.163 28.225C28.19 28.225 30.6525 25.7625 30.6525 22.7355C30.6525 19.7085 28.19 17.246 25.163 17.246ZM25.163 26.2245C23.239 26.2245 21.6735 24.6595 21.6735 22.735C21.6735 20.8105 23.239 19.2455 25.163 19.2455C27.087 19.2455 28.6525 20.8105 28.6525 22.735C28.6525 24.6595 27.087 26.2245 25.163 26.2245Z" fill="#4758DC"/>
<path fill-rule="evenodd" clip-rule="evenodd" d="M43.2535 24.387C43.2535 26.5445 41.498 28.3 39.3405 28.3C37.183 28.3 35.4275 26.545 35.4275 24.387C35.4275 22.229 37.183 20.4735 39.3405 20.4735C41.498 20.4735 43.2535 22.2295 43.2535 24.387ZM41.2535 24.387C41.2535 23.332 40.395 22.4735 39.3405 22.4735C38.286 22.4735 37.4275 23.332 37.4275 24.387C37.4275 25.442 38.286 26.3 39.3405 26.3C40.395 26.3 41.2535 25.442 41.2535 24.387Z" fill="#4758DC"/>
<path fill-rule="evenodd" clip-rule="evenodd" d="M23.3315 34.4165C21.174 34.4165 19.4185 36.172 19.4185 38.3295C19.4185 40.487 21.174 42.2425 23.3315 42.2425C25.489 42.2425 27.2445 40.487 27.2445 38.3295C27.2445 36.172 25.489 34.4165 23.3315 34.4165ZM23.3315 40.2425C22.277 40.2425 21.4185 39.3845 21.4185 38.3295C21.4185 37.2745 22.277 36.4165 23.3315 36.4165C24.386 36.4165 25.2445 37.2745 25.2445 38.3295C25.2445 39.3845 24.386 40.2425 23.3315 40.2425Z" fill="#4758DC"/>
<path fill-rule="evenodd" clip-rule="evenodd" d="M32.309 40.2445C32.309 36.367 35.463 33.2125 39.3405 33.2125C43.2175 33.2125 46.3725 36.367 46.3725 40.2445C46.3725 44.122 43.2175 47.2765 39.3405 47.2765C35.4635 47.2765 32.309 44.122 32.309 40.2445ZM34.309 40.2445C34.309 43.019 36.566 45.2765 39.3405 45.2765C42.115 45.2765 44.3725 43.019 44.3725 40.2445C44.3725 37.47 42.1145 35.2125 39.3405 35.2125C36.5665 35.2125 34.309 37.47 34.309 40.2445Z" fill="#4758DC"/>
<path fill-rule="evenodd" clip-rule="evenodd" d="M56.9465 32C56.9465 34.418 55.71 36.6065 53.6375 37.854C51.808 38.9555 50.925 41.088 51.4395 43.1605C52.0225 45.5075 51.3495 47.93 49.6395 49.64C47.9295 51.35 45.5075 52.0225 43.16 51.44C41.089 50.926 38.9555 51.809 37.854 53.638C36.6065 55.71 34.418 56.947 31.9995 56.947C29.581 56.947 27.3925 55.71 26.145 53.638C25.044 51.808 22.91 50.926 20.839 51.44C18.493 52.023 16.07 51.35 14.3595 49.64C12.6495 47.93 11.9765 45.5075 12.5595 43.1605C13.074 41.0885 12.1905 38.956 10.3615 37.8545C8.28949 36.6075 7.05249 34.4185 7.05249 32.0005C7.05249 29.5825 8.28899 27.394 10.3615 26.1465C12.191 25.045 13.074 22.9125 12.5595 20.84C11.9765 18.493 12.6495 16.071 14.3595 14.3605C16.0695 12.65 18.49 11.9765 20.839 12.5605C22.911 13.0745 25.044 12.192 26.145 10.3625C27.3925 8.29047 29.581 7.05347 31.9995 7.05347C34.418 7.05347 36.6065 8.29047 37.854 10.3625C38.9545 12.192 41.088 13.0735 43.16 12.5605C45.5065 11.9775 47.929 12.651 49.6395 14.3605C51.3495 16.0705 52.0225 18.493 51.4395 20.84C50.925 22.912 51.8085 25.0445 53.6375 26.146C55.7095 27.393 56.9465 29.582 56.9465 32ZM48.2255 48.2255C49.4355 47.016 49.911 45.3025 49.4985 43.6425C48.771 40.7125 50.02 37.698 52.6065 36.141C54.072 35.2585 54.947 33.711 54.947 32C54.947 30.289 54.072 28.7415 52.6065 27.859C50.02 26.302 48.771 23.2875 49.4985 20.3575C49.911 18.697 49.4355 16.9835 48.2255 15.774C47.016 14.5645 45.304 14.0895 43.643 14.501C40.713 15.229 37.6975 13.98 36.1405 11.3935C35.259 9.92797 33.7105 9.05297 32 9.05297C30.2895 9.05297 28.7415 9.92797 27.8595 11.3935C26.303 13.98 23.2895 15.2305 20.357 14.501C18.6985 14.0885 16.984 14.5645 15.7745 15.774C14.5645 16.9835 14.089 18.697 14.5015 20.357C15.229 23.287 13.98 26.302 11.3935 27.859C9.92799 28.7415 9.05299 30.289 9.05299 32C9.05299 33.711 9.92799 35.2585 11.3935 36.141C13.98 37.698 15.229 40.7125 14.5015 43.6425C14.089 45.303 14.5645 47.0165 15.7745 48.226C16.984 49.4355 18.6965 49.911 20.357 49.499C20.9135 49.3605 21.4735 49.2935 22.0255 49.2935C24.38 49.2935 26.5985 50.511 27.8595 52.606C28.741 54.0715 30.2895 54.9465 32 54.9465C33.7105 54.9465 35.2585 54.0715 36.1405 52.606C37.6975 50.0195 40.7105 48.7705 43.643 49.4985C45.3015 49.9105 47.016 49.435 48.2255 48.2255Z" fill="#4758DC"/>
</g>
<defs>
<clipPath id="clip0_325_181">
<rect width="64" height="64" fill="white"/>
</clipPath>
</defs>
</svg>
